<svg viewBox="0 0 100 100" xmlns="http://www.w3.org/2000/svg" id="a"><path d="M81.08,44.44c-3.27,0-5.93,2-5.93,4.46s2.66,4.46,5.93,4.46,6.06-2,6.06-4.46-2.72-4.46-6.06-4.46ZM81.08,51.92c-1.16,0-2.03-1.29-2.03-3.01,0-1.82.86-3.14,2.03-3.14s2.04,1.4,2.03,3.14c0,1.63-.93,3.01-2.03,3.01ZM36.15,44.44c-3.27,0-5.94,2-5.94,4.46s2.67,4.46,5.94,4.46,6.06-2,6.06-4.46-2.72-4.46-6.06-4.46ZM36.15,51.92c-1.16,0-2.03-1.29-2.03-3.01,0-1.82.85-3.14,2.03-3.14s2.04,1.4,2.03,3.14c0,1.63-.93,3.01-2.03,3.01ZM67.91,45.96h1.47l-2.58,5.03-2.94-5.03h2.09v-1.1h-8.34v1.1h1.96l3.8,7.11h4.54l3.8-7.11h1.96v-1.1h-5.76v1.1ZM22.49,46.06h1.51l-2.52,4.7-2.75-4.7h2.01v-1.32h-8.55v1.31h2l3.76,7.06.03.05h4.66l.03-.05,3.76-7.06h2v-1.31h-5.94v1.32ZM23.76,45.96h.38-.38ZM21.52,50.93l1.06-1.98-1.04,2.01-.02-.03ZM19.59,47.75l-1.04-1.73h.03l1.01,1.73ZM53.33,51.72h-2.09v-5.76h1.97v-1.1h-7.73v1.1h1.97v5.76h-1.97v1.35h11.65v-3.81h-1.22c-.06,1.38-1.2,2.47-2.58,2.46ZM82.52,12.02l-5.06,5.07c2.52,2.11,4.8,4.5,6.78,7.13l5.09-5.08,2.15-2.15c2.24,2.71,4.19,5.63,5.85,8.73h1.31V2.63h-23.06v1.31c3.2,1.71,6.21,3.74,8.99,6.06l-2.04,2.03ZM91.64,22.32l-5.18,5.18c12.44,20.15,6.18,46.57-13.97,59.01-20.15,12.44-46.57,6.18-59.01-13.97C1.05,52.38,7.3,25.96,27.45,13.53c14.37-8.87,32.61-8.48,46.59,1l5.13-5.13C56.74-6.72,25.5-1.59,9.39,20.83-6.72,43.26-1.59,74.5,20.83,90.61c22.43,16.11,53.67,10.99,69.78-11.44,12.13-16.89,12.54-39.53,1.03-56.85Z"></path></svg>